{
    "asset" : {
        "generator" : "Khronos glTF Blender I/O v1.6.16",
        "version" : "2.0"
    },
    "scene" : 0,
    "scenes" : [
        {
            "name" : "Scene",
            "nodes" : [
                0,
                1,
                2,
                3,
                4,
                5,
                6,
                7,
                8,
                9
            ]
        }
    ],
    "nodes" : [
        {
            "name" : "Light",
            "rotation" : [
                0.16907575726509094,
                0.7558803558349609,
                -0.27217137813568115,
                0.570947527885437
            ],
            "translation" : [
                4.076245307922363,
                5.903861999511719,
                -1.0054539442062378
            ]
        },
        {
            "name" : "Camera",
            "rotation" : [
                0.483536034822464,
                0.33687159419059753,
                -0.20870360732078552,
                0.7804827094078064
            ],
            "translation" : [
                7.358891487121582,
                4.958309173583984,
                6.925790786743164
            ]
        },
        {
            "name" : "Light.001",
            "rotation" : [
                0.5232754945755005,
                0.34203392267227173,
                -0.7269423604011536,
                0.284166157245636
            ],
            "translation" : [
                -204.37210083007812,
                5.903887748718262,
                -187.7189178466797
            ]
        },
        {
            "name" : "Camera.001",
            "rotation" : [
                0.8937963247299194,
                0.09062855690717697,
                -0.3857799172401428,
                0.20997287333011627
            ],
            "translation" : [
                -201.08946228027344,
                4.958333969116211,
                -179.7876739501953
            ]
        },
        {
            "name" : "Light.002",
            "rotation" : [
                0.5232754945755005,
                0.34203392267227173,
                -0.7269423604011536,
                0.284166157245636
            ],
            "translation" : [
                -204.37210083007812,
                5.903887748718262,
                -187.7189178466797
            ]
        },
        {
            "name" : "Camera.002",
            "rotation" : [
                0.8937963247299194,
                0.09062855690717697,
                -0.3857799172401428,
                0.20997287333011627
            ],
            "translation" : [
                -201.08946228027344,
                4.958333969116211,
                -179.7876739501953
            ]
        },
        {
            "mesh" : 0,
            "name" : "0_SensorsSupport_out3",
            "rotation" : [
                0.7071068286895752,
                0,
                0,
                0.7071067094802856
            ],
            "translation" : [
                -236.28341674804688,
                102.53684997558594,
                -134.18299865722656
            ]
        },
        {
            "mesh" : 1,
            "name" : "1_Sensor1Copper_out2_rotY22_traX-10",
            "rotation" : [
                0.7071068286895752,
                0,
                0,
                0.7071067094802856
            ],
            "translation" : [
                -220,
                2.6871770387515426e-05,
                -200.00003051757812
            ]
        },
        {
            "mesh" : 2,
            "name" : "2_Sensor2Copper",
            "rotation" : [
                0.7071068286895752,
                0,
                0,
                0.7071067094802856
            ],
            "translation" : [
                -220,
                2.6871770387515426e-05,
                -200.00003051757812
            ]
        },
        {
            "mesh" : 3,
            "name" : "3_Sensor3Copper_traZ51_rotX-80",
            "rotation" : [
                0.7071068286895752,
                0,
                0,
                0.7071067094802856
            ],
            "translation" : [
                -220,
                2.6871770387515426e-05,
                -200.00003051757812
            ]
        }
    ],
    "animations" : [
        {
            "channels" : [
                {
                    "sampler" : 0,
                    "target" : {
                        "node" : 6,
                        "path" : "translation"
                    }
                },
                {
                    "sampler" : 1,
                    "target" : {
                        "node" : 6,
                        "path" : "rotation"
                    }
                },
                {
                    "sampler" : 2,
                    "target" : {
                        "node" : 6,
                        "path" : "scale"
                    }
                }
            ],
            "name" : "enter",
            "samplers" : [
                {
                    "input" : 12,
                    "interpolation" : "LINEAR",
                    "output" : 13
                },
                {
                    "input" : 12,
                    "interpolation" : "LINEAR",
                    "output" : 14
                },
                {
                    "input" : 12,
                    "interpolation" : "LINEAR",
                    "output" : 15
                }
            ]
        }
    ],
    "meshes" : [
        {
            "name" : "A01 SensorsSupport.002",
            "primitives" : [
                {
                    "attributes" : {
                        "POSITION" : 0,
                        "NORMAL" : 1
                    },
                    "indices" : 2
                }
            ]
        },
        {
            "name" : "A02 Sensor1Copper.002",
            "primitives" : [
                {
                    "attributes" : {
                        "POSITION" : 3,
                        "NORMAL" : 4
                    },
                    "indices" : 5
                }
            ]
        },
        {
            "name" : "A02 Sensor2Copper.002",
            "primitives" : [
                {
                    "attributes" : {
                        "POSITION" : 6,
                        "NORMAL" : 7
                    },
                    "indices" : 8
                }
            ]
        },
        {
            "name" : "A02 Sensor3Copper.002",
            "primitives" : [
                {
                    "attributes" : {
                        "POSITION" : 9,
                        "NORMAL" : 10
                    },
                    "indices" : 11
                }
            ]
        }
    ],
    "accessors" : [
        {
            "bufferView" : 0,
            "componentType" : 5126,
            "count" : 3092,
            "max" : [
                344.1518859863281,
                296.926513671875,
                0
            ],
            "min" : [
                127.94519805908203,
                115.28959655761719,
                -3
            ],
            "type" : "VEC3"
        },
        {
            "bufferView" : 1,
            "componentType" : 5126,
            "count" : 3092,
            "type" : "VEC3"
        },
        {
            "bufferView" : 2,
            "componentType" : 5123,
            "count" : 3630,
            "type" : "SCALAR"
        },
        {
            "bufferView" : 3,
            "componentType" : 5126,
            "count" : 1446,
            "max" : [
                333.79339599609375,
                296.926513671875,
                0.10000000149011612
            ],
            "min" : [
                127.9478988647461,
                115.29209899902344,
                -3.0999999046325684
            ],
            "type" : "VEC3"
        },
        {
            "bufferView" : 4,
            "componentType" : 5126,
            "count" : 1446,
            "type" : "VEC3"
        },
        {
            "bufferView" : 5,
            "componentType" : 5123,
            "count" : 1644,
            "type" : "SCALAR"
        },
        {
            "bufferView" : 6,
            "componentType" : 5126,
            "count" : 1713,
            "max" : [
                344.1518859863281,
                293.5791931152344,
                0.10000000149011612
            ],
            "min" : [
                131.28309631347656,
                115.45379638671875,
                -3.0999999046325684
            ],
            "type" : "VEC3"
        },
        {
            "bufferView" : 7,
            "componentType" : 5126,
            "count" : 1713,
            "type" : "VEC3"
        },
        {
            "bufferView" : 8,
            "componentType" : 5123,
            "count" : 1956,
            "type" : "SCALAR"
        },
        {
            "bufferView" : 9,
            "componentType" : 5126,
            "count" : 1072,
            "max" : [
                314.9479064941406,
                296.9158020019531,
                0.10000000149011612
            ],
            "min" : [
                127.94650268554688,
                115.29070281982422,
                -3.0999999046325684
            ],
            "type" : "VEC3"
        },
        {
            "bufferView" : 10,
            "componentType" : 5126,
            "count" : 1072,
            "type" : "VEC3"
        },
        {
            "bufferView" : 11,
            "componentType" : 5123,
            "count" : 1164,
            "type" : "SCALAR"
        },
        {
            "bufferView" : 12,
            "componentType" : 5126,
            "count" : 104,
            "max" : [
                4.291666666666667
            ],
            "min" : [
                0
            ],
            "type" : "SCALAR"
        },
        {
            "bufferView" : 13,
            "componentType" : 5126,
            "count" : 104,
            "type" : "VEC3"
        },
        {
            "bufferView" : 14,
            "componentType" : 5126,
            "count" : 104,
            "type" : "VEC4"
        },
        {
            "bufferView" : 15,
            "componentType" : 5126,
            "count" : 104,
            "type" : "VEC3"
        }
    ],
    "bufferViews" : [
        {
            "buffer" : 0,
            "byteLength" : 37104,
            "byteOffset" : 0
        },
        {
            "buffer" : 0,
            "byteLength" : 37104,
            "byteOffset" : 37104
        },
        {
            "buffer" : 0,
            "byteLength" : 7260,
            "byteOffset" : 74208
        },
        {
            "buffer" : 0,
            "byteLength" : 17352,
            "byteOffset" : 81468
        },
        {
            "buffer" : 0,
            "byteLength" : 17352,
            "byteOffset" : 98820
        },
        {
            "buffer" : 0,
            "byteLength" : 3288,
            "byteOffset" : 116172
        },
        {
            "buffer" : 0,
            "byteLength" : 20556,
            "byteOffset" : 119460
        },
        {
            "buffer" : 0,
            "byteLength" : 20556,
            "byteOffset" : 140016
        },
        {
            "buffer" : 0,
            "byteLength" : 3912,
            "byteOffset" : 160572
        },
        {
            "buffer" : 0,
            "byteLength" : 12864,
            "byteOffset" : 164484
        },
        {
            "buffer" : 0,
            "byteLength" : 12864,
            "byteOffset" : 177348
        },
        {
            "buffer" : 0,
            "byteLength" : 2328,
            "byteOffset" : 190212
        },
        {
            "buffer" : 0,
            "byteLength" : 416,
            "byteOffset" : 192540
        },
        {
            "buffer" : 0,
            "byteLength" : 1248,
            "byteOffset" : 192956
        },
        {
            "buffer" : 0,
            "byteLength" : 1664,
            "byteOffset" : 194204
        },
        {
            "buffer" : 0,
            "byteLength" : 1248,
            "byteOffset" : 195868
        }
    ],
    "buffers" : [
        {
            "byteLength" : 197116,
            "uri" : "data:application/octet-stream;base64,"
        }
    ]
}
